Chivo-Italic.ufo
<glyph name="exclam" format="1">
  <advance width="269"/>
  <unicode hex="0021"/>
  <outline>
    <contour>
      <point x="133" y="686" type="line"/>
      <point x="118" y="514"/>
      <point x="101" y="346"/>
      <point x="85" y="174" type="curve"/>
      <point x="151" y="174" type="line"/>
      <point x="183" y="354"/>
      <point x="232" y="630"/>
      <point x="248" y="686" type="curve"/>
    </contour>
    <contour>
      <point x="59" y="111" type="line"/>
      <point x="43" y="0" type="line"/>
      <point x="144" y="0" type="line"/>
      <point x="160" y="111" type="line"/>
    </contour>
  </outline>
</glyph>
<glyph name="parenright" format="1">
  <advance width="289"/>
  <unicode hex="0029"/>
  <outline>
    <contour>
      <point x="86" y="686" type="line"/>
      <point x="130" y="594"/>
      <point x="160" y="475"/>
      <point x="160" y="355" type="curve" smooth="yes"/>
      <point x="160" y="165"/>
      <point x="74" y="-18"/>
      <point x="-33" y="-157" type="curve"/>
      <point x="18" y="-157" type="line"/>
      <point x="157" y="-16"/>
      <point x="243" y="162"/>
      <point x="243" y="351" type="curve" smooth="yes"/>
      <point x="243" y="475"/>
      <point x="206" y="591"/>
      <point x="137" y="686" type="curve"/>
    </contour>
  </outline>
</glyph>
<glyph name="asterisk" format="1">
  <advance width="469"/>
  <unicode hex="002A"/>
  <outline>
    <contour>
      <point x="251" y="686" type="line"/>
      <point x="241" y="520" type="line"/>
      <point x="95" y="586" type="line"/>
      <point x="59" y="509" type="line"/>
      <point x="217" y="469" type="line"/>
      <point x="88" y="344" type="line"/>
      <point x="145" y="296" type="line"/>
      <point x="252" y="438" type="line"/>
      <point x="320" y="294" type="line"/>
      <point x="391" y="343" type="line"/>
      <point x="299" y="468" type="line"/>
      <point x="470" y="506" type="line"/>
      <point x="458" y="584" type="line"/>
      <point x="291" y="519" type="line"/>
      <point x="330" y="686" type="line"/>
    </contour>
  </outline>
</glyph>
<glyph name="comma" format="1">
  <advance width="237"/>
  <unicode hex="002C"/>
  <outline>
    <contour>
      <point x="43" y="111" type="line"/>
      <point x="27" y="0" type="line"/>
      <point x="68" y="0" type="line"/>
      <point x="24" y="-124" type="line"/>
      <point x="76" y="-124" type="line"/>
      <point x="132" y="26" type="line"/>
      <point x="144" y="111" type="line"/>
    </contour>
  </outline>
</glyph>
<glyph name="zero" format="1">
  <advance width="615"/>
  <unicode hex="0030"/>
  <outline>
    <contour>
      <point x="357" y="696" type="line" smooth="yes"/>
      <point x="214" y="696"/>
      <point x="114" y="599"/>
      <point x="95" y="464" type="curve" smooth="yes"/>
      <point x="58" y="209"/>
      <point x="58" y="195"/>
      <point x="58" y="184" type="curve" smooth="yes"/>
      <point x="58" y="68"/>
      <point x="140" y="-10"/>
      <point x="258" y="-10" type="curve" smooth="yes"/>
      <point x="271" y="-10" type="line" smooth="yes"/>
      <point x="415" y="-10"/>
      <point x="514" y="86"/>
      <point x="533" y="221" type="curve" smooth="yes"/>
      <point x="563" y="434"/>
      <point x="570" y="460"/>
      <point x="570" y="484" type="curve" smooth="yes"/>
      <point x="570" y="499" type="line" smooth="yes"/>
      <point x="570" y="615"/>
      <point x="488" y="696"/>
      <point x="370" y="696" type="curve" smooth="yes"/>
    </contour>
    <contour>
      <point x="425" y="607"/>
      <point x="472" y="559"/>
      <point x="472" y="491" type="curve" smooth="yes"/>
      <point x="472" y="476"/>
      <point x="471" y="472"/>
      <point x="434" y="214" type="curve" smooth="yes"/>
      <point x="423" y="137"/>
      <point x="368" y="79"/>
      <point x="277" y="79" type="curve" smooth="yes"/>
      <point x="202" y="79"/>
      <point x="157" y="126"/>
      <point x="157" y="194" type="curve" smooth="yes"/>
      <point x="157" y="210"/>
      <point x="158" y="214"/>
      <point x="195" y="472" type="curve" smooth="yes"/>
      <point x="206" y="549"/>
      <point x="263" y="607"/>
      <point x="352" y="607" type="curve" smooth="yes"/>
    </contour>
  </outline>
</glyph>
<glyph name="nine" format="1">
  <advance width="615"/>
  <unicode hex="0039"/>
  <outline>
    <contour>
      <point x="208" y="696"/>
      <point x="85" y="600"/>
      <point x="85" y="436" type="curve" smooth="yes"/>
      <point x="85" y="329"/>
      <point x="166" y="254"/>
      <point x="277" y="254" type="curve" smooth="yes"/>
      <point x="341" y="254"/>
      <point x="398" y="279"/>
      <point x="441" y="320" type="curve"/>
      <point x="426" y="212" type="line" smooth="yes"/>
      <point x="416" y="139"/>
      <point x="357" y="79"/>
      <point x="274" y="79" type="curve" smooth="yes"/>
      <point x="202" y="79"/>
      <point x="158" y="120"/>
      <point x="158" y="189" type="curve" smooth="yes"/>
      <point x="158" y="197"/>
      <point x="159" y="205"/>
      <point x="160" y="213" type="curve"/>
      <point x="62" y="213" type="line"/>
      <point x="60" y="200"/>
      <point x="59" y="187"/>
      <point x="59" y="176" type="curve" smooth="yes"/>
      <point x="59" y="59"/>
      <point x="141" y="-10"/>
      <point x="262" y="-10" type="curve" smooth="yes"/>
      <point x="407" y="-10"/>
      <point x="506" y="89"/>
      <point x="525" y="221" type="curve" smooth="yes"/>
      <point x="550" y="404"/>
      <point x="562" y="487"/>
      <point x="562" y="502" type="curve" smooth="yes"/>
      <point x="562" y="622"/>
      <point x="474" y="696"/>
      <point x="355" y="696" type="curve" smooth="yes"/>
    </contour>
    <contour>
      <point x="414" y="607"/>
      <point x="464" y="564"/>
      <point x="464" y="495" type="curve" smooth="yes"/>
      <point x="464" y="404"/>
      <point x="389" y="343"/>
      <point x="307" y="343" type="curve" smooth="yes"/>
      <point x="235" y="343"/>
      <point x="184" y="386"/>
      <point x="184" y="455" type="curve" smooth="yes"/>
      <point x="184" y="549"/>
      <point x="261" y="607"/>
      <point x="343" y="607" type="curve" smooth="yes"/>
    </contour>
  </outline>
</glyph>
<glyph name="semicolon" format="1">
  <advance width="238"/>
  <unicode hex="003B"/>
  <outline>
    <contour>
      <point x="43" y="111" type="line"/>
      <point x="27" y="0" type="line"/>
      <point x="68" y="0" type="line"/>
      <point x="24" y="-124" type="line"/>
      <point x="76" y="-124" type="line"/>
      <point x="132" y="26" type="line"/>
      <point x="144" y="111" type="line"/>
    </contour>
    <contour>
      <point x="99" y="511" type="line"/>
      <point x="83" y="399" type="line"/>
      <point x="184" y="399" type="line"/>
      <point x="200" y="511" type="line"/>
    </contour>
  </outline>
</glyph>
<glyph name="question" format="1">
  <advance width="502"/>
  <unicode hex="003F"/>
  <outline>
    <contour>
      <point x="303" y="696" type="line" smooth="yes"/>
      <point x="148" y="696"/>
      <point x="53" y="600"/>
      <point x="53" y="458" type="curve"/>
      <point x="151" y="458" type="line"/>
      <point x="151" y="534"/>
      <point x="186" y="607"/>
      <point x="290" y="607" type="curve" smooth="yes"/>
      <point x="370" y="607"/>
      <point x="394" y="552"/>
      <point x="394" y="510" type="curve" smooth="yes"/>
      <point x="394" y="382"/>
      <point x="218" y="365"/>
      <point x="202" y="249" type="curve" smooth="yes"/>
      <point x="193" y="185" type="line"/>
      <point x="293" y="185" type="line"/>
      <point x="299" y="234" type="line" smooth="yes"/>
      <point x="310" y="327"/>
      <point x="493" y="346"/>
      <point x="493" y="524" type="curve" smooth="yes"/>
      <point x="493" y="589"/>
      <point x="460" y="696"/>
      <point x="309" y="696" type="curve" smooth="yes"/>
    </contour>
    <contour>
      <point x="180" y="111" type="line"/>
      <point x="165" y="0" type="line"/>
      <point x="269" y="0" type="line"/>
      <point x="284" y="111" type="line"/>
    </contour>
  </outline>
</glyph>
<glyph name="E" format="1">
  <advance width="592"/>
  <unicode hex="0045"/>
  <outline>
    <contour>
      <point x="148" y="686" type="line"/>
      <point x="51" y="0" type="line"/>
      <point x="507" y="0" type="line"/>
      <point x="507" y="89" type="line"/>
      <point x="162" y="89" type="line"/>
      <point x="192" y="306" type="line"/>
      <point x="499" y="306" type="line"/>
      <point x="512" y="395" type="line"/>
      <point x="205" y="395" type="line"/>
      <point x="233" y="597" type="line"/>
      <point x="572" y="597" type="line"/>
      <point x="598" y="686" type="line"/>
    </contour>
    <contour>
      <point x="503" y="10" type="move" name="ogonek"/>
    </contour>
    <contour>
      <point x="296" y="0" type="move" name="bottom"/>
    </contour>
    <contour>
      <point x="356" y="686" type="move" name="top"/>
    </contour>
  </outline>
</glyph>
<glyph name="L" format="1">
  <advance width="532"/>
  <unicode hex="004C"/>
  <outline>
    <contour>
      <point x="148" y="686" type="line"/>
      <point x="51" y="0" type="line"/>
      <point x="477" y="0" type="line"/>
      <point x="477" y="89" type="line"/>
      <point x="162" y="89" type="line"/>
      <point x="246" y="686" type="line"/>
    </contour>
    <contour>
      <point x="197" y="686" type="move" name="top"/>
    </contour>
    <contour>
      <point x="266" y="0" type="move" name="bottom"/>
    </contour>
    <contour>
      <point x="513" y="686" type="move" name="topright"/>
    </contour>
  </outline>
</glyph>
<glyph name="M" format="1">
  <advance width="938"/>
  <unicode hex="004D"/>
  <outline>
    <contour>
      <point x="749" y="686" type="line"/>
      <point x="451" y="146" type="line"/>
      <point x="447" y="146" type="line"/>
      <point x="302" y="686" type="line"/>
      <point x="148" y="686" type="line"/>
      <point x="51" y="0" type="line"/>
      <point x="140" y="0" type="line"/>
      <point x="221" y="571" type="line"/>
      <point x="226" y="571" type="line"/>
      <point x="381" y="0" type="line"/>
      <point x="464" y="0" type="line"/>
      <point x="782" y="571" type="line"/>
      <point x="788" y="571" type="line"/>
      <point x="707" y="0" type="line"/>
      <point x="805" y="0" type="line"/>
      <point x="902" y="686" type="line"/>
    </contour>
  </outline>
</glyph>
<glyph name="X" format="1">
  <advance width="628"/>
  <unicode hex="0058"/>
  <outline>
    <contour>
      <point x="545" y="685" type="line"/>
      <point x="528" y="665" type="line" smooth="yes"/>
      <point x="495" y="627"/>
      <point x="422" y="538"/>
      <point x="338" y="440" type="curve"/>
      <point x="205" y="685" type="line"/>
      <point x="88" y="685" type="line"/>
      <point x="267" y="355" type="line"/>
      <point x="-32" y="0" type="line"/>
      <point x="76" y="0" type="line"/>
      <point x="135" y="67"/>
      <point x="207" y="157"/>
      <point x="310" y="276" type="curve"/>
      <point x="461" y="0" type="line"/>
      <point x="579" y="0" type="line"/>
      <point x="381" y="361" type="line"/>
      <point x="486" y="484"/>
      <point x="583" y="605"/>
      <point x="630" y="658" type="curve" smooth="yes"/>
      <point x="654" y="685" type="line"/>
    </contour>
  </outline>
</glyph>
<glyph name="bracketleft" format="1">
  <advance width="294"/>
  <unicode hex="005B"/>
  <outline>
    <contour>
      <point x="141" y="686" type="line"/>
      <point x="22" y="-161" type="line"/>
      <point x="191" y="-161" type="line"/>
      <point x="199" y="-106" type="line"/>
      <point x="111" y="-106" type="line"/>
      <point x="214" y="631" type="line"/>
      <point x="302" y="631" type="line"/>
      <point x="310" y="686" type="line"/>
    </contour>
  </outline>
</glyph>
<glyph name="asciicircum" format="1">
  <advance width="596"/>
  <unicode hex="005E"/>
  <outline>
    <contour>
      <point x="280" y="511" type="line"/>
      <point x="12" y="0" type="line"/>
      <point x="96" y="0" type="line"/>
      <point x="172" y="141"/>
      <point x="244" y="280"/>
      <point x="320" y="421" type="curve"/>
      <point x="355" y="280"/>
      <point x="389" y="141"/>
      <point x="425" y="0" type="curve"/>
      <point x="509" y="0" type="line"/>
      <point x="383" y="511" type="line"/>
    </contour>
  </outline>
</glyph>
<glyph name="underscore" format="1">
  <advance width="687"/>
  <unicode hex="005F"/>
  <outline>
    <contour>
      <point x="43" y="-64" type="line"/>
      <point x="35" y="-124" type="line"/>
      <point x="533" y="-124" type="line"/>
      <point x="542" y="-64" type="line"/>
    </contour>
  </outline>
</glyph>
<glyph name="i" format="1">
  <advance width="260"/>
  <unicode hex="0069"/>
  <outline>
    <contour>
      <point x="114" y="511" type="line"/>
      <point x="42" y="0" type="line"/>
      <point x="136" y="0" type="line"/>
      <point x="208" y="511" type="line"/>
    </contour>
    <contour>
      <point x="141" y="720" type="line"/>
      <point x="129" y="633" type="line"/>
      <point x="227" y="633" type="line"/>
      <point x="239" y="720" type="line"/>
    </contour>
  </outline>
</glyph>
<glyph name="l" format="1">
  <advance width="268"/>
  <unicode hex="006C"/>
  <outline>
    <contour>
      <point x="147" y="720" type="line"/>
      <point x="46" y="0" type="line"/>
      <point x="140" y="0" type="line"/>
      <point x="241" y="720" type="line"/>
    </contour>
    <contour>
      <point x="197" y="686" type="move" name="top"/>
    </contour>
    <contour>
      <point x="93" y="0" type="move" name="bottom"/>
    </contour>
    <contour>
      <point x="339" y="686" type="move" name="topright"/>
    </contour>
  </outline>
</glyph>
<glyph name="p" format="1">
  <advance width="583"/>
  <unicode hex="0070"/>
  <outline>
    <contour>
      <point x="285" y="521"/>
      <point x="231" y="492"/>
      <point x="188" y="441" type="curve"/>
      <point x="188" y="511" type="line"/>
      <point x="114" y="511" type="line"/>
      <point x="17" y="-181" type="line"/>
      <point x="111" y="-181" type="line"/>
      <point x="146" y="65" type="line"/>
      <point x="170" y="21"/>
      <point x="217" y="-10"/>
      <point x="289" y="-10" type="curve" smooth="yes"/>
      <point x="469" y="-10"/>
      <point x="531" y="181"/>
      <point x="531" y="320" type="curve" smooth="yes"/>
      <point x="531" y="459"/>
      <point x="456" y="521"/>
      <point x="357" y="521" type="curve" smooth="yes"/>
    </contour>
    <contour>
      <point x="394" y="446"/>
      <point x="438" y="414"/>
      <point x="438" y="317" type="curve" smooth="yes"/>
      <point x="438" y="210"/>
      <point x="409" y="65"/>
      <point x="276" y="65" type="curve" smooth="yes"/>
      <point x="209" y="65"/>
      <point x="167" y="97"/>
      <point x="167" y="193" type="curve" smooth="yes"/>
      <point x="167" y="388"/>
      <point x="248" y="446"/>
      <point x="329" y="446" type="curve" smooth="yes"/>
    </contour>
  </outline>
</glyph>
<glyph name="v" format="1">
  <advance width="512"/>
  <unicode hex="0076"/>
  <outline>
    <contour>
      <point x="438" y="511" type="line"/>
      <point x="237" y="120" type="line"/>
      <point x="233" y="120" type="line"/>
      <point x="142" y="511" type="line"/>
      <point x="43" y="511" type="line"/>
      <point x="165" y="0" type="line"/>
      <point x="265" y="0" type="line"/>
      <point x="530" y="511" type="line"/>
    </contour>
  </outline>
</glyph>
<glyph name="x" format="1">
  <advance width="517"/>
  <unicode hex="0078"/>
  <outline>
    <contour>
      <point x="418" y="511" type="line"/>
      <point x="268" y="337" type="line"/>
      <point x="169" y="511" type="line"/>
      <point x="58" y="511" type="line"/>
      <point x="200" y="259" type="line"/>
      <point x="-23" y="0" type="line"/>
      <point x="79" y="0" type="line"/>
      <point x="240" y="187" type="line"/>
      <point x="347" y="0" type="line"/>
      <point x="459" y="0" type="line"/>
      <point x="308" y="265" type="line"/>
      <point x="521" y="511" type="line"/>
    </contour>
  </outline>
</glyph>
<glyph name="bar" format="1">
  <advance width="290"/>
  <unicode hex="007C"/>
  <outline>
    <contour>
      <point x="102" y="721" type="line"/>
      <point x="102" y="-199" type="line"/>
      <point x="182" y="-199" type="line"/>
      <point x="182" y="721" type="line"/>
    </contour>
  </outline>
</glyph>
<glyph name="braceright" format="1">
  <advance width="314"/>
  <unicode hex="007D"/>
  <outline>
    <contour>
      <point x="89" y="636" type="line"/>
      <point x="121" y="636"/>
      <point x="158" y="624"/>
      <point x="158" y="579" type="curve" smooth="yes"/>
      <point x="158" y="565"/>
      <point x="135" y="386"/>
      <point x="135" y="345" type="curve" smooth="yes"/>
      <point x="135" y="296"/>
      <point x="155" y="268"/>
      <point x="211" y="268" type="curve"/>
      <point x="210" y="259" type="line"/>
      <point x="146" y="259"/>
      <point x="118" y="221"/>
      <point x="106" y="156" type="curve" smooth="yes"/>
      <point x="94" y="91"/>
      <point x="83" y="29"/>
      <point x="72" y="-38" type="curve" smooth="yes"/>
      <point x="62" y="-96"/>
      <point x="19" y="-109"/>
      <point x="-16" y="-109" type="curve"/>
      <point x="-23" y="-159" type="line"/>
      <point x="59" y="-159"/>
      <point x="137" y="-139"/>
      <point x="154" y="-19" type="curve" smooth="yes"/>
      <point x="180" y="167" type="line" smooth="yes"/>
      <point x="186" y="209"/>
      <point x="228" y="224"/>
      <point x="265" y="224" type="curve"/>
      <point x="276" y="303" type="line"/>
      <point x="241" y="303"/>
      <point x="206" y="316"/>
      <point x="206" y="352" type="curve"/>
      <point x="235" y="558"/>
      <point x="235" y="568"/>
      <point x="235" y="579" type="curve" smooth="yes"/>
      <point x="235" y="670"/>
      <point x="170" y="686"/>
      <point x="96" y="686" type="curve"/>
    </contour>
  </outline>
</glyph>
<glyph name="asciitilde" format="1">
  <advance width="691"/>
  <unicode hex="007E"/>
  <outline>
    <contour>
      <point x="608" y="352"/>
      <point x="543" y="308"/>
      <point x="468" y="308" type="curve" smooth="yes"/>
      <point x="380" y="308"/>
      <point x="325" y="374"/>
      <point x="239" y="374" type="curve" smooth="yes"/>
      <point x="161" y="374"/>
      <point x="99" y="328"/>
      <point x="65" y="296" type="curve"/>
      <point x="53" y="211" type="line"/>
      <point x="87" y="243"/>
      <point x="149" y="289"/>
      <point x="227" y="289" type="curve" smooth="yes"/>
      <point x="315" y="289"/>
      <point x="370" y="223"/>
      <point x="456" y="223" type="curve" smooth="yes"/>
      <point x="531" y="223"/>
      <point x="596" y="267"/>
      <point x="630" y="301" type="curve"/>
      <point x="642" y="386" type="line"/>
    </contour>
  </outline>
</glyph>
<glyph name="exclamdown" format="1">
  <advance width="254"/>
  <unicode hex="00A1"/>
  <outline>
    <contour>
      <point x="100" y="335" type="line"/>
      <point x="3" y="-176" type="line"/>
      <point x="118" y="-176" type="line"/>
      <point x="134" y="-4"/>
      <point x="151" y="163"/>
      <point x="166" y="335" type="curve"/>
    </contour>
    <contour>
      <point x="107" y="510" type="line"/>
      <point x="91" y="399" type="line"/>
      <point x="192" y="399" type="line"/>
      <point x="208" y="510" type="line"/>
    </contour>
  </outline>
</glyph>
<glyph name="registered" format="1">
  <advance width="785"/>
  <unicode hex="00AE"/>
  <outline>
    <contour>
      <point x="203" y="696"/>
      <point x="46" y="539"/>
      <point x="46" y="344" type="curve" smooth="yes"/>
      <point x="46" y="147"/>
      <point x="203" y="-10"/>
      <point x="400" y="-10" type="curve" smooth="yes"/>
      <point x="595" y="-10"/>
      <point x="754" y="147"/>
      <point x="754" y="344" type="curve" smooth="yes"/>
      <point x="754" y="539"/>
      <point x="595" y="696"/>
      <point x="400" y="696" type="curve" smooth="yes"/>
    </contour>
    <contour>
      <point x="577" y="656"/>
      <point x="714" y="523"/>
      <point x="714" y="344" type="curve" smooth="yes"/>
      <point x="714" y="163"/>
      <point x="577" y="30"/>
      <point x="400" y="30" type="curve" smooth="yes"/>
      <point x="221" y="30"/>
      <point x="86" y="163"/>
      <point x="86" y="344" type="curve" smooth="yes"/>
      <point x="86" y="523"/>
      <point x="221" y="656"/>
      <point x="400" y="656" type="curve" smooth="yes"/>
    </contour>
    <contour>
      <point x="256" y="547" type="line"/>
      <point x="256" y="135" type="line"/>
      <point x="320" y="135" type="line"/>
      <point x="320" y="319" type="line"/>
      <point x="419" y="319" type="line" smooth="yes"/>
      <point x="448" y="319"/>
      <point x="486" y="292"/>
      <point x="486" y="212" type="curve" smooth="yes"/>
      <point x="486" y="145"/>
      <point x="516" y="132"/>
      <point x="546" y="132" type="curve" smooth="yes"/>
      <point x="559" y="132"/>
      <point x="574" y="135"/>
      <point x="581" y="138" type="curve"/>
      <point x="581" y="156" type="line"/>
      <point x="550" y="167"/>
      <point x="550" y="192"/>
      <point x="550" y="227" type="curve" smooth="yes"/>
      <point x="550" y="303"/>
      <point x="516" y="336"/>
      <point x="490" y="347" type="curve"/>
      <point x="525" y="360"/>
      <point x="557" y="397"/>
      <point x="557" y="444" type="curve" smooth="yes"/>
      <point x="557" y="505"/>
      <point x="502" y="547"/>
      <point x="443" y="547" type="curve" smooth="yes"/>
    </contour>
    <contour>
      <point x="466" y="492"/>
      <point x="494" y="467"/>
      <point x="494" y="435" type="curve" smooth="yes"/>
      <point x="494" y="431" type="line" smooth="yes"/>
      <point x="494" y="399"/>
      <point x="466" y="373"/>
      <point x="431" y="373" type="curve" smooth="yes"/>
      <point x="320" y="373" type="line"/>
      <point x="320" y="492" type="line"/>
      <point x="431" y="492" type="line" smooth="yes"/>
    </contour>
  </outline>
</glyph>
<glyph name="macron" format="1">
  <advance width="460"/>
  <unicode hex="00AF"/>
  <outline>
    <contour>
      <point x="75" y="736" type="line"/>
      <point x="64" y="662" type="line"/>
      <point x="382" y="662" type="line"/>
      <point x="393" y="736" type="line"/>
    </contour>
    <contour>
      <point x="209" y="511" type="move" name="_top"/>
    </contour>
  </outline>
</glyph>
<glyph name="degree" format="1">
  <advance width="404"/>
  <unicode hex="00B0"/>
  <outline>
    <contour>
      <point x="165" y="696"/>
      <point x="83" y="639"/>
      <point x="83" y="535" type="curve" smooth="yes"/>
      <point x="83" y="454"/>
      <point x="135" y="396"/>
      <point x="227" y="396" type="curve" smooth="yes"/>
      <point x="310" y="396"/>
      <point x="391" y="453"/>
      <point x="391" y="557" type="curve" smooth="yes"/>
      <point x="391" y="636"/>
      <point x="340" y="696"/>
      <point x="245" y="696" type="curve" smooth="yes"/>
    </contour>
    <contour>
      <point x="308" y="640"/>
      <point x="324" y="587"/>
      <point x="324" y="552" type="curve" smooth="yes"/>
      <point x="324" y="488"/>
      <point x="283" y="451"/>
      <point x="234" y="451" type="curve" smooth="yes"/>
      <point x="181" y="451"/>
      <point x="150" y="487"/>
      <point x="150" y="540" type="curve" smooth="yes"/>
      <point x="150" y="603"/>
      <point x="191" y="640"/>
      <point x="240" y="640" type="curve" smooth="yes"/>
    </contour>
  </outline>
</glyph>
<glyph name="paragraph" format="1">
  <advance width="524"/>
  <unicode hex="00B6"/>
  <outline>
    <contour>
      <point x="299" y="686" type="line" smooth="yes"/>
      <point x="155" y="686"/>
      <point x="48" y="571"/>
      <point x="48" y="435" type="curve" smooth="yes"/>
      <point x="48" y="338"/>
      <point x="115" y="261"/>
      <point x="211" y="250" type="curve"/>
      <point x="152" y="-169" type="line"/>
      <point x="215" y="-169" type="line"/>
      <point x="327" y="625" type="line"/>
      <point x="399" y="625" type="line"/>
      <point x="287" y="-169" type="line"/>
      <point x="350" y="-169" type="line"/>
      <point x="462" y="625" type="line"/>
      <point x="528" y="625" type="line"/>
      <point x="537" y="686" type="line"/>
    </contour>
  </outline>
</glyph>
<glyph name="Agrave" format="1">
  <advance width="650"/>
  <unicode hex="00C0"/>
  <outline>
    <contour>
      <point x="328" y="686" type="line"/>
      <point x="-36" y="0" type="line"/>
      <point x="58" y="0" type="line"/>
      <point x="136" y="149" type="line"/>
      <point x="464" y="149" type="line"/>
      <point x="501" y="0" type="line"/>
      <point x="607" y="0" type="line"/>
      <point x="436" y="686" type="line"/>
    </contour>
    <contour>
      <point x="443" y="238" type="line"/>
      <point x="184" y="238" type="line"/>
      <point x="357" y="568" type="line"/>
      <point x="363" y="568" type="line"/>
    </contour>
    <contour>
      <point x="258" y="895" type="line"/>
      <point x="256" y="892" type="line"/>
      <point x="351" y="750" type="line"/>
      <point x="421" y="750" type="line"/>
      <point x="347" y="895" type="line"/>
    </contour>
  </outline>
</glyph>
<glyph name="Atilde" format="1">
  <advance width="650"/>
  <unicode hex="00C3"/>
  <outline>
    <contour>
      <point x="328" y="686" type="line"/>
      <point x="-36" y="0" type="line"/>
      <point x="58" y="0" type="line"/>
      <point x="136" y="149" type="line"/>
      <point x="464" y="149" type="line"/>
      <point x="501" y="0" type="line"/>
      <point x="607" y="0" type="line"/>
      <point x="436" y="686" type="line"/>
    </contour>
    <contour>
      <point x="443" y="238" type="line"/>
      <point x="184" y="238" type="line"/>
      <point x="357" y="568" type="line"/>
      <point x="363" y="568" type="line"/>
    </contour>
    <contour>
      <point x="536" y="854" type="line"/>
      <point x="526" y="831"/>
      <point x="506" y="819"/>
      <point x="476" y="819" type="curve" smooth="yes"/>
      <point x="423" y="819"/>
      <point x="377" y="854"/>
      <point x="313" y="854" type="curve" smooth="yes"/>
      <point x="235" y="854"/>
      <point x="195" y="795"/>
      <point x="187" y="750" type="curve"/>
      <point x="235" y="750" type="line"/>
      <point x="245" y="773"/>
      <point x="265" y="784"/>
      <point x="295" y="784" type="curve" smooth="yes"/>
      <point x="349" y="784"/>
      <point x="395" y="750"/>
      <point x="459" y="750" type="curve" smooth="yes"/>
      <point x="537" y="750"/>
      <point x="578" y="806"/>
      <point x="586" y="854" type="curve"/>
    </contour>
  </outline>
</glyph>
<glyph name="Aring" format="1">
  <advance width="650"/>
  <unicode hex="00C5"/>
  <outline>
    <contour>
      <point x="328" y="686" type="line"/>
      <point x="-36" y="0" type="line"/>
      <point x="58" y="0" type="line"/>
      <point x="136" y="149" type="line"/>
      <point x="464" y="149" type="line"/>
      <point x="501" y="0" type="line"/>
      <point x="607" y="0" type="line"/>
      <point x="436" y="686" type="line"/>
    </contour>
    <contour>
      <point x="443" y="238" type="line"/>
      <point x="184" y="238" type="line"/>
      <point x="357" y="568" type="line"/>
      <point x="363" y="568" type="line"/>
    </contour>
    <contour>
      <point x="345" y="922"/>
      <point x="291" y="878"/>
      <point x="291" y="814" type="curve" smooth="yes"/>
      <point x="291" y="758"/>
      <point x="331" y="720"/>
      <point x="387" y="720" type="curve" smooth="yes"/>
      <point x="443" y="720"/>
      <point x="496" y="768"/>
      <point x="496" y="828" type="curve" smooth="yes"/>
      <point x="496" y="883"/>
      <point x="456" y="922"/>
      <point x="400" y="922" type="curve" smooth="yes"/>
    </contour>
    <contour>
      <point x="429" y="881"/>
      <point x="451" y="856"/>
      <point x="451" y="825" type="curve" smooth="yes"/>
      <point x="451" y="789"/>
      <point x="421" y="761"/>
      <point x="390" y="761" type="curve" smooth="yes"/>
      <point x="358" y="761"/>
      <point x="336" y="786"/>
      <point x="336" y="817" type="curve" smooth="yes"/>
      <point x="336" y="854"/>
      <point x="365" y="881"/>
      <point x="397" y="881" type="curve" smooth="yes"/>
    </contour>
  </outline>
</glyph>
<glyph name="Ccedilla" format="1">
  <advance width="662"/>
  <unicode hex="00C7"/>
  <outline>
    <contour>
      <point x="225" y="696"/>
      <point x="105" y="597"/>
      <point x="75" y="388" type="curve" smooth="yes"/>
      <point x="58" y="275"/>
      <point x="57" y="253"/>
      <point x="57" y="232" type="curve" smooth="yes"/>
      <point x="57" y="69"/>
      <point x="156" y="-10"/>
      <point x="301" y="-10" type="curve" smooth="yes"/>
      <point x="459" y="-10"/>
      <point x="577" y="74"/>
      <point x="604" y="261" type="curve"/>
      <point x="510" y="261" type="line"/>
      <point x="492" y="134"/>
      <point x="412" y="79"/>
      <point x="313" y="79" type="curve" smooth="yes"/>
      <point x="217" y="79"/>
      <point x="156" y="126"/>
      <point x="156" y="241" type="curve" smooth="yes"/>
      <point x="156" y="258"/>
      <point x="157" y="279"/>
      <point x="173" y="388" type="curve" smooth="yes"/>
      <point x="195" y="544"/>
      <point x="279" y="607"/>
      <point x="388" y="607" type="curve" smooth="yes"/>
      <point x="473" y="607"/>
      <point x="532" y="565"/>
      <point x="532" y="466" type="curve" smooth="yes"/>
      <point x="532" y="452"/>
      <point x="531" y="438"/>
      <point x="529" y="423" type="curve"/>
      <point x="627" y="423" type="line"/>
      <point x="630" y="442"/>
      <point x="631" y="460"/>
      <point x="631" y="477" type="curve" smooth="yes"/>
      <point x="631" y="624"/>
      <point x="533" y="696"/>
      <point x="400" y="696" type="curve" smooth="yes"/>
    </contour>
    <contour>
      <point x="259" y="-17" type="line"/>
      <point x="253" y="-60" type="line"/>
      <point x="274" y="-60" type="line" smooth="yes"/>
      <point x="301" y="-60"/>
      <point x="320" y="-72"/>
      <point x="320" y="-95" type="curve" smooth="yes"/>
      <point x="320" y="-131"/>
      <point x="289" y="-146"/>
      <point x="257" y="-146" type="curve" smooth="yes"/>
      <point x="214" y="-146"/>
      <point x="187" y="-131"/>
      <point x="178" y="-126" type="curve"/>
      <point x="162" y="-175" type="line"/>
      <point x="187" y="-190"/>
      <point x="222" y="-197"/>
      <point x="254" y="-197" type="curve" smooth="yes"/>
      <point x="300" y="-197"/>
      <point x="383" y="-176"/>
      <point x="383" y="-90" type="curve" smooth="yes"/>
      <point x="383" y="-32"/>
      <point x="334" y="-17"/>
      <point x="283" y="-17" type="curve" smooth="yes"/>
    </contour>
  </outline>
</glyph>
<glyph name="Igrave" format="1">
  <advance width="365"/>
  <unicode hex="00CC"/>
  <outline>
    <contour>
      <point x="109" y="686" type="line"/>
      <point x="96" y="597" type="line"/>
      <point x="176" y="597" type="line"/>
      <point x="105" y="89" type="line"/>
      <point x="25" y="89" type="line"/>
      <point x="12" y="0" type="line"/>
      <point x="270" y="0" type="line"/>
      <point x="283" y="89" type="line"/>
      <point x="203" y="89" type="line"/>
      <point x="274" y="597" type="line"/>
      <point x="354" y="597" type="line"/>
      <point x="367" y="686" type="line"/>
    </contour>
    <contour>
      <point x="110" y="895" type="line"/>
      <point x="108" y="892" type="line"/>
      <point x="203" y="750" type="line"/>
      <point x="273" y="750" type="line"/>
      <point x="199" y="895" type="line"/>
    </contour>
  </outline>
</glyph>
<glyph name="Icircumflex" format="1">
  <advance width="365"/>
  <unicode hex="00CE"/>
  <outline>
    <contour>
      <point x="109" y="686" type="line"/>
      <point x="96" y="597" type="line"/>
      <point x="176" y="597" type="line"/>
      <point x="105" y="89" type="line"/>
      <point x="25" y="89" type="line"/>
      <point x="12" y="0" type="line"/>
      <point x="270" y="0" type="line"/>
      <point x="283" y="89" type="line"/>
      <point x="203" y="89" type="line"/>
      <point x="274" y="597" type="line"/>
      <point x="354" y="597" type="line"/>
      <point x="367" y="686" type="line"/>
    </contour>
    <contour>
      <point x="228" y="895" type="line"/>
      <point x="71" y="750" type="line"/>
      <point x="151" y="750" type="line"/>
      <point x="259" y="839" type="line"/>
      <point x="340" y="750" type="line"/>
      <point x="420" y="750" type="line"/>
      <point x="306" y="895" type="line"/>
    </contour>
  </outline>
</glyph>
<glyph name="multiply" format="1">
  <advance width="615"/>
  <unicode hex="00D7"/>
  <outline>
    <contour>
      <point x="311" y="314" type="line"/>
      <point x="178" y="466" type="line"/>
      <point x="157" y="446"/>
      <point x="138" y="427"/>
      <point x="115" y="407" type="curve"/>
      <point x="246" y="255" type="line"/>
      <point x="72" y="104" type="line"/>
      <point x="88" y="84"/>
      <point x="104" y="65"/>
      <point x="119" y="45" type="curve"/>
      <point x="294" y="195" type="line"/>
      <point x="337" y="144"/>
      <point x="382" y="96"/>
      <point x="426" y="45" type="curve"/>
      <point x="447" y="65"/>
      <point x="466" y="84"/>
      <point x="489" y="104" type="curve"/>
      <point x="357" y="255" type="line"/>
      <point x="532" y="407" type="line"/>
      <point x="517" y="427"/>
      <point x="501" y="446"/>
      <point x="485" y="466" type="curve"/>
    </contour>
  </outline>
</glyph>
<glyph name="Oslash" format="1">
  <advance width="690"/>
  <unicode hex="00D8"/>
  <outline>
    <contour>
      <point x="625" y="754" type="line"/>
      <point x="552" y="655" type="line"/>
      <point x="511" y="682"/>
      <point x="461" y="696"/>
      <point x="402" y="696" type="curve" smooth="yes"/>
      <point x="233" y="696"/>
      <point x="103" y="596"/>
      <point x="75" y="388" type="curve" smooth="yes"/>
      <point x="60" y="275"/>
      <point x="57" y="264"/>
      <point x="57" y="235" type="curve" smooth="yes"/>
      <point x="57" y="159"/>
      <point x="78" y="104"/>
      <point x="115" y="63" type="curve"/>
      <point x="20" y="-65" type="line"/>
      <point x="84" y="-65" type="line"/>
      <point x="154" y="30" type="line"/>
      <point x="195" y="3"/>
      <point x="244" y="-10"/>
      <point x="303" y="-10" type="curve" smooth="yes"/>
      <point x="474" y="-10"/>
      <point x="601" y="90"/>
      <point x="630" y="298" type="curve" smooth="yes"/>
      <point x="646" y="410"/>
      <point x="647" y="431"/>
      <point x="647" y="450" type="curve" smooth="yes"/>
      <point x="647" y="525"/>
      <point x="626" y="580"/>
      <point x="590" y="621" type="curve"/>
      <point x="689" y="754" type="line"/>
    </contour>
    <contour>
      <point x="541" y="512"/>
      <point x="549" y="481"/>
      <point x="549" y="442" type="curve" smooth="yes"/>
      <point x="549" y="426"/>
      <point x="548" y="406"/>
      <point x="532" y="298" type="curve" smooth="yes"/>
      <point x="508" y="142"/>
      <point x="423" y="79"/>
      <point x="315" y="79" type="curve" smooth="yes"/>
      <point x="272" y="79"/>
      <point x="238" y="88"/>
      <point x="211" y="107" type="curve"/>
      <point x="528" y="537" type="line"/>
    </contour>
    <contour>
      <point x="432" y="607"/>
      <point x="467" y="597"/>
      <point x="494" y="577" type="curve"/>
      <point x="177" y="147" type="line"/>
      <point x="163" y="172"/>
      <point x="156" y="204"/>
      <point x="156" y="244" type="curve" smooth="yes"/>
      <point x="156" y="260"/>
      <point x="158" y="278"/>
      <point x="173" y="388" type="curve" smooth="yes"/>
      <point x="195" y="544"/>
      <point x="280" y="607"/>
      <point x="390" y="607" type="curve" smooth="yes"/>
    </contour>
    <contour>
      <point x="385" y="686" type="move" name="top"/>
    </contour>
  </outline>
</glyph>
<glyph name="Yacute" format="1">
  <advance width="570"/>
  <unicode hex="00DD"/>
  <outline>
    <contour>
      <point x="528" y="686" type="line"/>
      <point x="302" y="367" type="line"/>
      <point x="298" y="367" type="line"/>
      <point x="160" y="686" type="line"/>
      <point x="49" y="686" type="line"/>
      <point x="231" y="265" type="line"/>
      <point x="193" y="0" type="line"/>
      <point x="291" y="0" type="line"/>
      <point x="329" y="265" type="line"/>
      <point x="629" y="686" type="line"/>
    </contour>
    <contour>
      <point x="420" y="895" type="line"/>
      <point x="305" y="750" type="line"/>
      <point x="374" y="750" type="line"/>
      <point x="510" y="891" type="line"/>
      <point x="510" y="895" type="line"/>
    </contour>
  </outline>
</glyph>
<glyph name="atilde" format="1">
  <advance width="607"/>
  <unicode hex="00E3"/>
  <outline>
    <contour>
      <point x="153" y="521"/>
      <point x="42" y="405"/>
      <point x="42" y="190" type="curve" smooth="yes"/>
      <point x="42" y="52"/>
      <point x="116" y="-10"/>
      <point x="216" y="-10" type="curve" smooth="yes"/>
      <point x="285" y="-10"/>
      <point x="338" y="18"/>
      <point x="381" y="65" type="curve"/>
      <point x="381" y="24"/>
      <point x="398" y="-10"/>
      <point x="457" y="-10" type="curve" smooth="yes"/>
      <point x="493" y="-10"/>
      <point x="521" y="2"/>
      <point x="534" y="10" type="curve"/>
      <point x="543" y="79" type="line"/>
      <point x="532" y="72"/>
      <point x="511" y="65"/>
      <point x="496" y="65" type="curve" smooth="yes"/>
      <point x="483" y="65"/>
      <point x="472" y="73"/>
      <point x="472" y="92" type="curve" smooth="yes"/>
      <point x="472" y="95"/>
      <point x="502" y="332"/>
      <point x="530" y="511" type="curve"/>
      <point x="465" y="511" type="line"/>
      <point x="434" y="446" type="line"/>
      <point x="427" y="446" type="line"/>
      <point x="403" y="490"/>
      <point x="353" y="521"/>
      <point x="284" y="521" type="curve" smooth="yes"/>
    </contour>
    <contour>
      <point x="362" y="446"/>
      <point x="406" y="414"/>
      <point x="406" y="318" type="curve" smooth="yes"/>
      <point x="406" y="179"/>
      <point x="356" y="65"/>
      <point x="244" y="65" type="curve" smooth="yes"/>
      <point x="177" y="65"/>
      <point x="135" y="97"/>
      <point x="135" y="193" type="curve" smooth="yes"/>
      <point x="135" y="295"/>
      <point x="166" y="446"/>
      <point x="297" y="446" type="curve" smooth="yes"/>
    </contour>
    <contour>
      <point x="478" y="720" type="line"/>
      <point x="468" y="697"/>
      <point x="448" y="685"/>
      <point x="418" y="685" type="curve" smooth="yes"/>
      <point x="365" y="685"/>
      <point x="319" y="720"/>
      <point x="255" y="720" type="curve" smooth="yes"/>
      <point x="177" y="720"/>
      <point x="137" y="661"/>
      <point x="129" y="616" type="curve"/>
      <point x="177" y="616" type="line"/>
      <point x="187" y="639"/>
      <point x="207" y="650"/>
      <point x="237" y="650" type="curve" smooth="yes"/>
      <point x="291" y="650"/>
      <point x="337" y="616"/>
      <point x="401" y="616" type="curve" smooth="yes"/>
      <point x="479" y="616"/>
      <point x="520" y="672"/>
      <point x="528" y="720" type="curve"/>
    </contour>
  </outline>
</glyph>
<glyph name="aring" format="1">
  <advance width="607"/>
  <unicode hex="00E5"/>
  <outline>
    <contour>
      <point x="153" y="521"/>
      <point x="42" y="405"/>
      <point x="42" y="190" type="curve" smooth="yes"/>
      <point x="42" y="52"/>
      <point x="116" y="-10"/>
      <point x="216" y="-10" type="curve" smooth="yes"/>
      <point x="285" y="-10"/>
      <point x="338" y="18"/>
      <point x="381" y="65" type="curve"/>
      <point x="381" y="24"/>
      <point x="398" y="-10"/>
      <point x="457" y="-10" type="curve" smooth="yes"/>
      <point x="493" y="-10"/>
      <point x="521" y="2"/>
      <point x="534" y="10" type="curve"/>
      <point x="543" y="79" type="line"/>
      <point x="532" y="72"/>
      <point x="511" y="65"/>
      <point x="496" y="65" type="curve" smooth="yes"/>
      <point x="483" y="65"/>
      <point x="472" y="73"/>
      <point x="472" y="92" type="curve" smooth="yes"/>
      <point x="472" y="95"/>
      <point x="502" y="332"/>
      <point x="530" y="511" type="curve"/>
      <point x="465" y="511" type="line"/>
      <point x="434" y="446" type="line"/>
      <point x="427" y="446" type="line"/>
      <point x="403" y="490"/>
      <point x="353" y="521"/>
      <point x="284" y="521" type="curve" smooth="yes"/>
    </contour>
    <contour>
      <point x="362" y="446"/>
      <point x="406" y="414"/>
      <point x="406" y="318" type="curve" smooth="yes"/>
      <point x="406" y="179"/>
      <point x="356" y="65"/>
      <point x="244" y="65" type="curve" smooth="yes"/>
      <point x="177" y="65"/>
      <point x="135" y="97"/>
      <point x="135" y="193" type="curve" smooth="yes"/>
      <point x="135" y="295"/>
      <point x="166" y="446"/>
      <point x="297" y="446" type="curve" smooth="yes"/>
    </contour>
    <contour>
      <point x="279" y="750"/>
      <point x="225" y="706"/>
      <point x="225" y="642" type="curve" smooth="yes"/>
      <point x="225" y="586"/>
      <point x="265" y="548"/>
      <point x="321" y="548" type="curve" smooth="yes"/>
      <point x="377" y="548"/>
      <point x="430" y="596"/>
      <point x="430" y="656" type="curve" smooth="yes"/>
      <point x="430" y="711"/>
      <point x="390" y="750"/>
      <point x="334" y="750" type="curve" smooth="yes"/>
    </contour>
    <contour>
      <point x="363" y="709"/>
      <point x="385" y="684"/>
      <point x="385" y="653" type="curve" smooth="yes"/>
      <point x="385" y="617"/>
      <point x="355" y="589"/>
      <point x="324" y="589" type="curve" smooth="yes"/>
      <point x="292" y="589"/>
      <point x="270" y="614"/>
      <point x="270" y="645" type="curve" smooth="yes"/>
      <point x="270" y="682"/>
      <point x="299" y="709"/>
      <point x="331" y="709" type="curve" smooth="yes"/>
    </contour>
  </outline>
</glyph>
<glyph name="iacute" format="1">
  <advance width="261"/>
  <unicode hex="00ED"/>
  <outline>
    <contour>
      <point x="114" y="511" type="line"/>
      <point x="43" y="0" type="line"/>
      <point x="137" y="0" type="line"/>
      <point x="208" y="511" type="line"/>
    </contour>
    <contour>
      <point x="232" y="720" type="line"/>
      <point x="117" y="575" type="line"/>
      <point x="186" y="575" type="line"/>
      <point x="322" y="716" type="line"/>
      <point x="322" y="720" type="line"/>
    </contour>
  </outline>
</glyph>
<glyph name="icircumflex" format="1">
  <advance width="261"/>
  <unicode hex="00EE"/>
  <outline>
    <contour>
      <point x="114" y="511" type="line"/>
      <point x="43" y="0" type="line"/>
      <point x="137" y="0" type="line"/>
      <point x="208" y="511" type="line"/>
    </contour>
    <contour>
      <point x="147" y="720" type="line"/>
      <point x="-10" y="575" type="line"/>
      <point x="70" y="575" type="line"/>
      <point x="178" y="664" type="line"/>
      <point x="259" y="575" type="line"/>
      <point x="339" y="575" type="line"/>
      <point x="225" y="720" type="line"/>
    </contour>
  </outline>
</glyph>
<glyph name="oacute" format="1">
  <advance width="576"/>
  <unicode hex="00F3"/>
  <outline>
    <contour>
      <point x="109" y="521"/>
      <point x="41" y="351"/>
      <point x="41" y="187" type="curve" smooth="yes"/>
      <point x="41" y="54"/>
      <point x="129" y="-10"/>
      <point x="245" y="-10" type="curve" smooth="yes"/>
      <point x="456" y="-10"/>
      <point x="524" y="159"/>
      <point x="524" y="324" type="curve" smooth="yes"/>
      <point x="524" y="457"/>
      <point x="436" y="521"/>
      <point x="320" y="521" type="curve" smooth="yes"/>
    </contour>
    <contour>
      <point x="377" y="446"/>
      <point x="428" y="406"/>
      <point x="428" y="310" type="curve" smooth="yes"/>
      <point x="428" y="201"/>
      <point x="387" y="65"/>
      <point x="256" y="65" type="curve" smooth="yes"/>
      <point x="188" y="65"/>
      <point x="136" y="105"/>
      <point x="136" y="200" type="curve" smooth="yes"/>
      <point x="136" y="309"/>
      <point x="173" y="446"/>
      <point x="309" y="446" type="curve" smooth="yes"/>
    </contour>
    <contour>
      <point x="409" y="720" type="line"/>
      <point x="294" y="575" type="line"/>
      <point x="363" y="575" type="line"/>
      <point x="499" y="716" type="line"/>
      <point x="499" y="720" type="line"/>
    </contour>
  </outline>
</glyph>
<glyph name="otilde" format="1">
  <advance width="576"/>
  <unicode hex="00F5"/>
  <outline>
    <contour>
      <point x="109" y="521"/>
      <point x="41" y="351"/>
      <point x="41" y="187" type="curve" smooth="yes"/>
      <point x="41" y="54"/>
      <point x="129" y="-10"/>
      <point x="245" y="-10" type="curve" smooth="yes"/>
      <point x="456" y="-10"/>
      <point x="524" y="159"/>
      <point x="524" y="324" type="curve" smooth="yes"/>
      <point x="524" y="457"/>
      <point x="436" y="521"/>
      <point x="320" y="521" type="curve" smooth="yes"/>
    </contour>
    <contour>
      <point x="377" y="446"/>
      <point x="428" y="406"/>
      <point x="428" y="310" type="curve" smooth="yes"/>
      <point x="428" y="201"/>
      <point x="387" y="65"/>
      <point x="256" y="65" type="curve" smooth="yes"/>
      <point x="188" y="65"/>
      <point x="136" y="105"/>
      <point x="136" y="200" type="curve" smooth="yes"/>
      <point x="136" y="309"/>
      <point x="173" y="446"/>
      <point x="309" y="446" type="curve" smooth="yes"/>
    </contour>
    <contour>
      <point x="482" y="719" type="line"/>
      <point x="472" y="696"/>
      <point x="452" y="684"/>
      <point x="422" y="684" type="curve" smooth="yes"/>
      <point x="369" y="684"/>
      <point x="323" y="719"/>
      <point x="259" y="719" type="curve" smooth="yes"/>
      <point x="181" y="719"/>
      <point x="141" y="660"/>
      <point x="133" y="615" type="curve"/>
      <point x="181" y="615" type="line"/>
      <point x="191" y="638"/>
      <point x="211" y="649"/>
      <point x="241" y="649" type="curve" smooth="yes"/>
      <point x="295" y="649"/>
      <point x="341" y="615"/>
      <point x="405" y="615" type="curve" smooth="yes"/>
      <point x="483" y="615"/>
      <point x="524" y="671"/>
      <point x="532" y="719" type="curve"/>
    </contour>
  </outline>
</glyph>
<glyph name="oslash" format="1">
  <advance width="576"/>
  <unicode hex="00F8"/>
  <outline>
    <contour>
      <point x="491" y="568" type="line"/>
      <point x="434" y="494" type="line"/>
      <point x="402" y="512"/>
      <point x="364" y="521"/>
      <point x="320" y="521" type="curve" smooth="yes"/>
      <point x="109" y="521"/>
      <point x="41" y="351"/>
      <point x="41" y="187" type="curve" smooth="yes"/>
      <point x="41" y="123"/>
      <point x="60" y="78"/>
      <point x="92" y="45" type="curve"/>
      <point x="15" y="-55" type="line"/>
      <point x="74" y="-55" type="line"/>
      <point x="129" y="17" type="line"/>
      <point x="161" y="-1"/>
      <point x="200" y="-10"/>
      <point x="245" y="-10" type="curve" smooth="yes"/>
      <point x="456" y="-10"/>
      <point x="524" y="159"/>
      <point x="524" y="324" type="curve" smooth="yes"/>
      <point x="524" y="387"/>
      <point x="504" y="433"/>
      <point x="472" y="466" type="curve"/>
      <point x="550" y="568" type="line"/>
    </contour>
    <contour>
      <point x="423" y="367"/>
      <point x="428" y="341"/>
      <point x="428" y="310" type="curve" smooth="yes"/>
      <point x="428" y="201"/>
      <point x="387" y="65"/>
      <point x="256" y="65" type="curve" smooth="yes"/>
      <point x="225" y="65"/>
      <point x="201" y="72"/>
      <point x="182" y="86" type="curve"/>
      <point x="412" y="388" type="line"/>
    </contour>
    <contour>
      <point x="337" y="446"/>
      <point x="361" y="439"/>
      <point x="381" y="425" type="curve"/>
      <point x="151" y="123" type="line"/>
      <point x="141" y="143"/>
      <point x="136" y="169"/>
      <point x="136" y="200" type="curve"/>
      <point x="144" y="309"/>
      <point x="172" y="446"/>
      <point x="309" y="446" type="curve" smooth="yes"/>
    </contour>
    <contour>
      <point x="328" y="511" type="move" name="top"/>
    </contour>
  </outline>
</glyph>
<glyph name="ugrave" format="1">
  <advance width="617"/>
  <unicode hex="00F9"/>
  <outline>
    <contour>
      <point x="447" y="511" type="line"/>
      <point x="404" y="207" type="line"/>
      <point x="391" y="127"/>
      <point x="318" y="65"/>
      <point x="248" y="65" type="curve" smooth="yes"/>
      <point x="192" y="65"/>
      <point x="155" y="90"/>
      <point x="155" y="155" type="curve"/>
      <point x="154" y="172"/>
      <point x="166" y="261"/>
      <point x="179" y="346" type="curve" smooth="yes"/>
      <point x="203" y="511" type="line"/>
      <point x="109" y="511" type="line"/>
      <point x="83" y="337"/>
      <point x="58" y="165"/>
      <point x="58" y="131" type="curve" smooth="yes"/>
      <point x="58" y="32"/>
      <point x="125" y="-10"/>
      <point x="217" y="-10" type="curve" smooth="yes"/>
      <point x="290" y="-10"/>
      <point x="354" y="32"/>
      <point x="391" y="74" type="curve"/>
      <point x="391" y="64" type="line" smooth="yes"/>
      <point x="391" y="24"/>
      <point x="408" y="-10"/>
      <point x="467" y="-10" type="curve" smooth="yes"/>
      <point x="503" y="-10"/>
      <point x="531" y="2"/>
      <point x="544" y="10" type="curve"/>
      <point x="553" y="79" type="line"/>
      <point x="542" y="72"/>
      <point x="521" y="65"/>
      <point x="506" y="65" type="curve" smooth="yes"/>
      <point x="493" y="65"/>
      <point x="482" y="73"/>
      <point x="482" y="92" type="curve"/>
      <point x="481" y="95"/>
      <point x="496" y="200"/>
      <point x="511" y="304" type="curve" smooth="yes"/>
      <point x="541" y="511" type="line"/>
    </contour>
    <contour>
      <point x="205" y="720" type="line"/>
      <point x="203" y="717" type="line"/>
      <point x="298" y="575" type="line"/>
      <point x="368" y="575" type="line"/>
      <point x="294" y="720" type="line"/>
    </contour>
  </outline>
</glyph>
<glyph name="iogonek" format="1">
  <advance width="261"/>
  <unicode hex="012F"/>
  <outline>
    <contour>
      <point x="141" y="720" type="line"/>
      <point x="129" y="633" type="line"/>
      <point x="227" y="633" type="line"/>
      <point x="239" y="720" type="line"/>
    </contour>
    <component base="dotlessi"/>
    <component base="ogonek" xOffset="-53"/>
  </outline>
</glyph>
<glyph name="zcaron" format="1">
  <advance width="463"/>
  <unicode hex="017E"/>
  <outline>
    <contour>
      <point x="82" y="511" type="line"/>
      <point x="72" y="436" type="line"/>
      <point x="306" y="436" type="line"/>
      <point x="1" y="38" type="line"/>
      <point x="-4" y="0" type="line"/>
      <point x="383" y="0" type="line"/>
      <point x="393" y="75" type="line"/>
      <point x="135" y="75" type="line"/>
      <point x="441" y="474" type="line"/>
      <point x="446" y="511" type="line"/>
    </contour>
    <contour>
      <point x="371" y="720" type="line"/>
      <point x="264" y="631" type="line"/>
      <point x="182" y="720" type="line"/>
      <point x="102" y="720" type="line"/>
      <point x="217" y="575" type="line"/>
      <point x="295" y="575" type="line"/>
      <point x="451" y="720" type="line"/>
    </contour>
  </outline>
</glyph>
<glyph name="dotaccent" format="1">
  <advance width="280"/>
  <unicode hex="02D9"/>
  <outline>
    <contour>
      <point x="101" y="736"/>
      <point x="73" y="701"/>
      <point x="73" y="658" type="curve" smooth="yes"/>
      <point x="73" y="627"/>
      <point x="97" y="604"/>
      <point x="128" y="604" type="curve" smooth="yes"/>
      <point x="173" y="604"/>
      <point x="206" y="638"/>
      <point x="206" y="677" type="curve" smooth="yes"/>
      <point x="206" y="710"/>
      <point x="183" y="736"/>
      <point x="148" y="736" type="curve" smooth="yes"/>
    </contour>
    <contour>
      <point x="120" y="511" type="move" name="_top"/>
    </contour>
  </outline>
</glyph>
<glyph name="tilde" format="1">
  <advance width="364"/>
  <unicode hex="02DC"/>
  <outline>
    <contour>
      <point x="341" y="717" type="line"/>
      <point x="331" y="694"/>
      <point x="311" y="682"/>
      <point x="281" y="682" type="curve" smooth="yes"/>
      <point x="228" y="682"/>
      <point x="182" y="717"/>
      <point x="118" y="717" type="curve" smooth="yes"/>
      <point x="40" y="717"/>
      <point x="0" y="658"/>
      <point x="-8" y="613" type="curve"/>
      <point x="40" y="613" type="line"/>
      <point x="50" y="636"/>
      <point x="70" y="647"/>
      <point x="100" y="647" type="curve" smooth="yes"/>
      <point x="154" y="647"/>
      <point x="200" y="613"/>
      <point x="264" y="613" type="curve" smooth="yes"/>
      <point x="342" y="613"/>
      <point x="383" y="669"/>
      <point x="391" y="717" type="curve"/>
    </contour>
    <contour>
      <point x="192" y="511" type="move" name="_top"/>
    </contour>
  </outline>
</glyph>
<glyph name="Omega" format="1">
  <advance width="699"/>
  <unicode hex="03A9"/>
  <outline>
    <component base="uni2126"/>
    <contour>
      <point x="81" y="686" type="move" name="topleft"/>
    </contour>
  </outline>
</glyph>
<glyph name="pi" format="1">
  <advance width="627"/>
  <unicode hex="03C0"/>
  <outline>
    <contour>
      <point x="210" y="511" type="line" smooth="yes"/>
      <point x="122" y="511"/>
      <point x="74" y="501"/>
      <point x="46" y="482" type="curve"/>
      <point x="50" y="425" type="line"/>
      <point x="75" y="433"/>
      <point x="108" y="437"/>
      <point x="171" y="437" type="curve"/>
      <point x="150" y="312"/>
      <point x="90" y="104"/>
      <point x="39" y="0" type="curve"/>
      <point x="129" y="0" type="line"/>
      <point x="177" y="86"/>
      <point x="238" y="312"/>
      <point x="262" y="437" type="curve"/>
      <point x="436" y="437" type="line"/>
      <point x="395" y="143" type="line" smooth="yes"/>
      <point x="389" y="101"/>
      <point x="386" y="68"/>
      <point x="386" y="43" type="curve" smooth="yes"/>
      <point x="386" y="21"/>
      <point x="388" y="7"/>
      <point x="392" y="0" type="curve"/>
      <point x="481" y="0" type="line"/>
      <point x="479" y="12"/>
      <point x="478" y="26"/>
      <point x="478" y="43" type="curve" smooth="yes"/>
      <point x="478" y="70"/>
      <point x="480" y="104"/>
      <point x="487" y="152" type="curve" smooth="yes"/>
      <point x="527" y="437" type="line"/>
      <point x="614" y="437" type="line"/>
      <point x="633" y="511" type="line"/>
    </contour>
  </outline>
</glyph>
<glyph name="quoteright" format="1">
  <advance width="218"/>
  <unicode hex="2019"/>
  <outline>
    <contour>
      <point x="115" y="686" type="line"/>
      <point x="99" y="575" type="line"/>
      <point x="140" y="575" type="line"/>
      <point x="96" y="451" type="line"/>
      <point x="148" y="451" type="line"/>
      <point x="204" y="601" type="line"/>
      <point x="216" y="686" type="line"/>
    </contour>
  </outline>
</glyph>
<glyph name="quotedblleft" format="1">
  <advance width="366"/>
  <unicode hex="201C"/>
  <outline>
    <contour>
      <point x="293" y="686" type="line"/>
      <point x="237" y="536" type="line"/>
      <point x="225" y="451" type="line"/>
      <point x="326" y="451" type="line"/>
      <point x="342" y="562" type="line"/>
      <point x="301" y="562" type="line"/>
      <point x="345" y="686" type="line"/>
    </contour>
    <contour>
      <point x="151" y="686" type="line"/>
      <point x="95" y="536" type="line"/>
      <point x="83" y="451" type="line"/>
      <point x="184" y="451" type="line"/>
      <point x="200" y="562" type="line"/>
      <point x="159" y="562" type="line"/>
      <point x="203" y="686" type="line"/>
    </contour>
  </outline>
</glyph>
<glyph name="quotedblright" format="1">
  <advance width="360"/>
  <unicode hex="201D"/>
  <outline>
    <contour>
      <point x="257" y="686" type="line"/>
      <point x="241" y="575" type="line"/>
      <point x="282" y="575" type="line"/>
      <point x="238" y="451" type="line"/>
      <point x="290" y="451" type="line"/>
      <point x="346" y="601" type="line"/>
      <point x="358" y="686" type="line"/>
    </contour>
    <contour>
      <point x="115" y="686" type="line"/>
      <point x="99" y="575" type="line"/>
      <point x="140" y="575" type="line"/>
      <point x="96" y="451" type="line"/>
      <point x="148" y="451" type="line"/>
      <point x="204" y="601" type="line"/>
      <point x="216" y="686" type="line"/>
    </contour>
  </outline>
</glyph>
<glyph name="dagger" format="1">
  <advance width="511"/>
  <unicode hex="2020"/>
  <outline>
    <contour>
      <point x="267" y="686" type="line"/>
      <point x="267" y="493" type="line"/>
      <point x="54" y="510" type="line"/>
      <point x="41" y="417" type="line"/>
      <point x="248" y="435" type="line"/>
      <point x="143" y="-170" type="line"/>
      <point x="237" y="-170" type="line"/>
      <point x="302" y="435" type="line"/>
      <point x="505" y="417" type="line"/>
      <point x="518" y="510" type="line"/>
      <point x="311" y="493" type="line"/>
      <point x="355" y="686" type="line"/>
    </contour>
  </outline>
</glyph>
<glyph name="daggerdbl" format="1">
  <advance width="531"/>
  <unicode hex="2021"/>
  <outline>
    <contour>
      <point x="277" y="686" type="line"/>
      <point x="277" y="492" type="line"/>
      <point x="64" y="510" type="line"/>
      <point x="51" y="417" type="line"/>
      <point x="259" y="434" type="line"/>
      <point x="236" y="344"/>
      <point x="216" y="263"/>
      <point x="212" y="166" type="curve" smooth="yes"/>
      <point x="208" y="76" type="line"/>
      <point x="140" y="81"/>
      <point x="74" y="86"/>
      <point x="6" y="93" type="curve"/>
      <point x="-7" y="0" type="line"/>
      <point x="200" y="18" type="line"/>
      <point x="156" y="-175" type="line"/>
      <point x="243" y="-175" type="line"/>
      <point x="247" y="-110"/>
      <point x="250" y="-46"/>
      <point x="253" y="18" type="curve"/>
      <point x="456" y="0" type="line"/>
      <point x="469" y="93" type="line"/>
      <point x="400" y="86"/>
      <point x="332" y="81"/>
      <point x="261" y="76" type="curve"/>
      <point x="276" y="136"/>
      <point x="289" y="196"/>
      <point x="304" y="256" type="curve"/>
      <point x="312" y="434" type="line"/>
      <point x="514" y="417" type="line"/>
      <point x="527" y="510" type="line"/>
      <point x="320" y="492" type="line"/>
      <point x="364" y="686" type="line"/>
    </contour>
  </outline>
</glyph>
<glyph name="bullet" format="1">
  <advance width="600"/>
  <unicode hex="2022"/>
  <outline>
    <contour>
      <point x="227" y="496"/>
      <point x="155" y="415"/>
      <point x="155" y="322" type="curve" smooth="yes"/>
      <point x="155" y="247"/>
      <point x="209" y="191"/>
      <point x="284" y="191" type="curve" smooth="yes"/>
      <point x="394" y="191"/>
      <point x="458" y="279"/>
      <point x="458" y="364" type="curve" smooth="yes"/>
      <point x="458" y="439"/>
      <point x="403" y="496"/>
      <point x="327" y="496" type="curve" smooth="yes"/>
    </contour>
  </outline>
</glyph>
<glyph name="ellipsis" format="1">
  <advance width="734"/>
  <unicode hex="2026"/>
  <outline>
    <contour>
      <point x="539" y="111" type="line"/>
      <point x="524" y="0" type="line"/>
      <point x="626" y="0" type="line"/>
      <point x="641" y="111" type="line"/>
    </contour>
    <contour>
      <point x="44" y="111" type="line"/>
      <point x="29" y="0" type="line"/>
      <point x="131" y="0" type="line"/>
      <point x="146" y="111" type="line"/>
    </contour>
    <contour>
      <point x="292" y="111" type="line"/>
      <point x="277" y="0" type="line"/>
      <point x="379" y="0" type="line"/>
      <point x="394" y="111" type="line"/>
    </contour>
  </outline>
</glyph>
<glyph name="uni2113" format="1">
  <advance width="451"/>
  <unicode hex="2113"/>
  <outline>
    <contour>
      <point x="180" y="230" type="line"/>
      <point x="410" y="230"/>
      <point x="477" y="412"/>
      <point x="477" y="533" type="curve" smooth="yes"/>
      <point x="477" y="645"/>
      <point x="419" y="696"/>
      <point x="326" y="696" type="curve" smooth="yes"/>
      <point x="224" y="696"/>
      <point x="152" y="635"/>
      <point x="135" y="511" type="curve" smooth="yes"/>
      <point x="120" y="406" type="line"/>
      <point x="214" y="406" type="line"/>
      <point x="229" y="511" type="line" smooth="yes"/>
      <point x="240" y="584"/>
      <point x="279" y="614"/>
      <point x="327" y="614" type="curve" smooth="yes"/>
      <point x="369" y="614"/>
      <point x="397" y="590"/>
      <point x="397" y="524" type="curve" smooth="yes"/>
      <point x="397" y="447"/>
      <point x="359" y="305"/>
      <point x="191" y="305" type="curve"/>
    </contour>
    <contour>
      <point x="27" y="230" type="line"/>
      <point x="148" y="230" type="line"/>
      <point x="159" y="305" type="line"/>
      <point x="38" y="305" type="line"/>
    </contour>
    <contour>
      <point x="126" y="449" type="line"/>
      <point x="90" y="190" type="line" smooth="yes"/>
      <point x="85" y="158"/>
      <point x="84" y="141"/>
      <point x="84" y="127" type="curve" smooth="yes"/>
      <point x="84" y="39"/>
      <point x="136" y="-10"/>
      <point x="235" y="-10" type="curve" smooth="yes"/>
      <point x="274" y="-10"/>
      <point x="315" y="-4"/>
      <point x="347" y="8" type="curve"/>
      <point x="357" y="78" type="line"/>
      <point x="321" y="68"/>
      <point x="291" y="63"/>
      <point x="265" y="63" type="curve" smooth="yes"/>
      <point x="208" y="63"/>
      <point x="179" y="87"/>
      <point x="179" y="141" type="curve" smooth="yes"/>
      <point x="179" y="151"/>
      <point x="180" y="165"/>
      <point x="183" y="185" type="curve" smooth="yes"/>
      <point x="220" y="449" type="line"/>
    </contour>
  </outline>
</glyph>
<glyph name="trademark" format="1">
  <advance width="898"/>
  <unicode hex="2122"/>
  <outline>
    <contour>
      <point x="781" y="686" type="line"/>
      <point x="616" y="385" type="line"/>
      <point x="589" y="485"/>
      <point x="564" y="586"/>
      <point x="537" y="686" type="curve"/>
      <point x="438" y="686" type="line"/>
      <point x="383" y="288" type="line"/>
      <point x="441" y="288" type="line"/>
      <point x="484" y="600" type="line"/>
      <point x="513" y="496"/>
      <point x="539" y="392"/>
      <point x="567" y="288" type="curve"/>
      <point x="629" y="288" type="line"/>
      <point x="685" y="392"/>
      <point x="745" y="499"/>
      <point x="801" y="603" type="curve"/>
      <point x="788" y="498"/>
      <point x="774" y="393"/>
      <point x="759" y="288" type="curve"/>
      <point x="824" y="288" type="line"/>
      <point x="879" y="686" type="line"/>
    </contour>
    <contour>
      <point x="100" y="686" type="line"/>
      <point x="92" y="626" type="line"/>
      <point x="217" y="626" type="line"/>
      <point x="170" y="288" type="line"/>
      <point x="235" y="288" type="line"/>
      <point x="282" y="626" type="line"/>
      <point x="406" y="626" type="line"/>
      <point x="414" y="686" type="line"/>
    </contour>
  </outline>
</glyph>
<glyph name="uni2206" format="1">
  <advance width="624"/>
  <unicode hex="2206"/>
  <outline>
    <contour>
      <point x="317" y="686" type="line"/>
      <point x="-5" y="65" type="line"/>
      <point x="-14" y="0" type="line"/>
      <point x="558" y="0" type="line"/>
      <point x="567" y="65" type="line"/>
      <point x="420" y="686" type="line"/>
    </contour>
    <contour>
      <point x="481" y="75" type="line"/>
      <point x="85" y="75" type="line"/>
      <point x="356" y="597" type="line"/>
    </contour>
  </outline>
</glyph>
<glyph name="product" format="1">
  <advance width="749"/>
  <unicode hex="220F"/>
  <outline>
    <contour>
      <point x="83" y="708" type="line"/>
      <point x="70" y="611" type="line"/>
      <point x="184" y="611" type="line"/>
      <point x="84" y="-98" type="line"/>
      <point x="186" y="-98" type="line"/>
      <point x="286" y="611" type="line"/>
      <point x="553" y="611" type="line"/>
      <point x="453" y="-98" type="line"/>
      <point x="555" y="-98" type="line"/>
      <point x="655" y="611" type="line"/>
      <point x="770" y="611" type="line"/>
      <point x="783" y="708" type="line"/>
    </contour>
  </outline>
</glyph>
<glyph name="minus" format="1">
  <advance width="615"/>
  <unicode hex="2212"/>
  <outline>
    <contour>
      <point x="54" y="312" type="line"/>
      <point x="41" y="221" type="line"/>
      <point x="553" y="221" type="line"/>
      <point x="566" y="312" type="line"/>
    </contour>
  </outline>
</glyph>
<glyph name="greaterequal" format="1">
  <advance width="615"/>
  <unicode hex="2265"/>
  <outline>
    <contour>
      <point x="76" y="430" type="line"/>
      <point x="213" y="390"/>
      <point x="349" y="351"/>
      <point x="488" y="312" type="curve"/>
      <point x="43" y="194" type="line"/>
      <point x="31" y="104" type="line"/>
      <point x="210" y="156"/>
      <point x="382" y="207"/>
      <point x="561" y="258" type="curve"/>
      <point x="576" y="365" type="line"/>
      <point x="413" y="417"/>
      <point x="253" y="469"/>
      <point x="89" y="520" type="curve"/>
    </contour>
    <contour>
      <point x="28" y="83" type="line"/>
      <point x="16" y="0" type="line"/>
      <point x="526" y="0" type="line"/>
      <point x="538" y="83" type="line"/>
    </contour>
  </outline>
</glyph>
<glyph name="uniFB01" format="1">
  <advance width="602"/>
  <unicode hex="FB01"/>
  <outline>
    <contour>
      <point x="214" y="728"/>
      <point x="160" y="691"/>
      <point x="147" y="602" type="curve" smooth="yes"/>
      <point x="134" y="511" type="line"/>
      <point x="76" y="511" type="line"/>
      <point x="66" y="436" type="line"/>
      <point x="125" y="436" type="line"/>
      <point x="54" y="-46" type="line" smooth="yes"/>
      <point x="45" y="-104"/>
      <point x="15" y="-110"/>
      <point x="-11" y="-110" type="curve" smooth="yes"/>
      <point x="-26" y="-110"/>
      <point x="-57" y="-103"/>
      <point x="-72" y="-96" type="curve"/>
      <point x="-80" y="-165" type="line"/>
      <point x="-61" y="-177"/>
      <point x="-24" y="-184"/>
      <point x="4" y="-184" type="curve" smooth="yes"/>
      <point x="77" y="-184"/>
      <point x="134" y="-147"/>
      <point x="147" y="-58" type="curve" smooth="yes"/>
      <point x="218" y="436" type="line"/>
      <point x="338" y="436" type="line"/>
      <point x="347" y="511" type="line"/>
      <point x="227" y="511" type="line"/>
      <point x="239" y="590" type="line" smooth="yes"/>
      <point x="248" y="648"/>
      <point x="276" y="654"/>
      <point x="305" y="654" type="curve" smooth="yes"/>
      <point x="320" y="654"/>
      <point x="350" y="647"/>
      <point x="365" y="640" type="curve"/>
      <point x="374" y="709" type="line"/>
      <point x="354" y="721"/>
      <point x="318" y="728"/>
      <point x="290" y="728" type="curve" smooth="yes"/>
    </contour>
    <contour>
      <point x="458" y="511" type="line"/>
      <point x="386" y="0" type="line"/>
      <point x="480" y="0" type="line"/>
      <point x="552" y="511" type="line"/>
    </contour>
    <contour>
      <point x="485" y="720" type="line"/>
      <point x="473" y="633" type="line"/>
      <point x="571" y="633" type="line"/>
      <point x="583" y="720" type="line"/>
    </contour>
  </outline>
</glyph>
